<svg width="72" height="72" viewBox="0 0 72 72" fill="none" xmlns="http://www.w3.org/2000/svg">
<path d="M18.6569 19.24C18.4068 18.8037 18.0663 18.4258 17.6584 18.1317C17.2504 17.8376 16.7844 17.6341 16.2914 17.5347C15.7984 17.4353 15.2898 17.4423 14.7998 17.5554C14.3098 17.6684 13.8495 17.8848 13.4499 18.1901C13.0503 18.4954 12.7204 18.8826 12.4826 19.3257C12.2447 19.7688 12.1041 20.2576 12.0704 20.7593C12.0367 21.2611 12.1106 21.7643 12.2871 22.2352C12.4636 22.7062 12.7387 23.134 13.0939 23.49L24.6269 38.59L27.3149 41.977L19.4249 31.646C19.1748 31.2097 18.8344 30.8319 18.4265 30.5378C18.0186 30.2437 17.5526 30.0402 17.0597 29.9407C16.5668 29.8413 16.0583 29.8483 15.5683 29.9613C15.0783 30.0742 14.6181 30.2905 14.2185 30.5957C13.8188 30.9009 13.489 31.2879 13.251 31.7309C13.013 32.1739 12.8724 32.6626 12.8385 33.1643C12.8047 33.666 12.8784 34.1692 13.0547 34.6401C13.231 35.111 13.5059 35.5389 13.8609 35.895L21.7519 46.226L28.0219 54.125C33.4899 60.398 42.5369 60.055 48.8089 54.59C52.4131 51.4216 54.731 47.042 55.3239 42.28C55.7099 38.047 56.1309 26.979 56.1309 26.979C55.9489 24.378 52.9959 22.455 52.6159 23.799L47.7219 33.556L44.3559 29.333L47.7219 33.556L44.3559 29.333L30.8909 12.125C30.641 11.6883 30.3007 11.3101 29.8928 11.0156C29.4848 10.7212 29.0187 10.5173 28.5256 10.4176C28.0324 10.318 27.5237 10.3248 27.0334 10.4378C26.5431 10.5507 26.0827 10.7672 25.6829 11.0725C25.283 11.3779 24.9531 11.7652 24.7151 12.2085C24.4772 12.6518 24.3367 13.1408 24.303 13.6428C24.2694 14.1447 24.3435 14.6481 24.5202 15.1191C24.697 15.5902 24.9723 16.018 25.3279 16.374L29.5769 21.937L35.9999 30.417L22.5809 12.737C22.3312 12.2999 21.9911 11.9213 21.5832 11.6265C21.1752 11.3317 20.709 11.1275 20.2157 11.0276C19.7224 10.9277 19.2135 10.9344 18.723 11.0472C18.2325 11.1601 17.7719 11.3765 17.3718 11.682C16.9718 11.9874 16.6417 12.3749 16.4037 12.8183C16.1657 13.2618 16.0252 13.751 15.9917 14.2532C15.9581 14.7553 16.0324 15.2589 16.2094 15.73C16.3863 16.2012 16.662 16.6291 17.0179 16.985L31.6889 36" fill="#FCEA2B"/>
<path d="M18.6569 19.24C18.4068 18.8037 18.0663 18.4258 17.6584 18.1317C17.2504 17.8376 16.7844 17.6341 16.2914 17.5347C15.7984 17.4353 15.2898 17.4423 14.7998 17.5554C14.3098 17.6684 13.8495 17.8848 13.4499 18.1901C13.0503 18.4954 12.7204 18.8826 12.4826 19.3257C12.2447 19.7688 12.1041 20.2576 12.0704 20.7593C12.0367 21.2611 12.1106 21.7643 12.2871 22.2352C12.4636 22.7062 12.7387 23.134 13.0939 23.49L24.6269 38.59L27.3149 41.977L19.4249 31.646C19.1748 31.2097 18.8344 30.8319 18.4265 30.5378C18.0186 30.2437 17.5526 30.0402 17.0597 29.9407C16.5668 29.8413 16.0583 29.8483 15.5683 29.9613C15.0783 30.0742 14.6181 30.2905 14.2185 30.5957C13.8188 30.9009 13.489 31.2879 13.251 31.7309C13.013 32.1739 12.8724 32.6626 12.8385 33.1643C12.8047 33.666 12.8784 34.1692 13.0547 34.6401C13.231 35.111 13.5059 35.5389 13.8609 35.895L21.7519 46.226L28.0219 54.125C33.4899 60.398 42.5369 60.055 48.8089 54.59C52.4131 51.4216 54.731 47.0421 55.3239 42.28C55.7099 38.047 56.1309 26.979 56.1309 26.979C55.9489 24.378 52.9959 22.455 52.6159 23.799L47.7219 33.556L44.3559 29.333L47.7219 33.556L44.3559 29.333L30.8909 12.125C30.641 11.6883 30.3007 11.3101 29.8928 11.0156C29.4848 10.7212 29.0187 10.5173 28.5256 10.4176C28.0324 10.318 27.5237 10.3248 27.0334 10.4378C26.5431 10.5507 26.0827 10.7672 25.6829 11.0725C25.283 11.3779 24.9531 11.7652 24.7151 12.2085C24.4772 12.6518 24.3367 13.1408 24.303 13.6428C24.2694 14.1447 24.3435 14.6481 24.5202 15.1191C24.697 15.5902 24.9723 16.018 25.3279 16.374L29.5769 21.937L35.9999 30.417L22.5809 12.737C22.3312 12.2999 21.9911 11.9213 21.5832 11.6265C21.1752 11.3317 20.709 11.1275 20.2157 11.0276C19.7224 10.9277 19.2135 10.9344 18.723 11.0472C18.2325 11.1601 17.7719 11.3765 17.3718 11.682C16.9718 11.9874 16.6417 12.3749 16.4037 12.8183C16.1657 13.2618 16.0252 13.751 15.9917 14.2532C15.9581 14.7553 16.0324 15.2589 16.2094 15.73C16.3863 16.2012 16.662 16.6291 17.0179 16.985L31.6889 36" stroke="black" stroke-width="2" stroke-linecap="round" stroke-linejoin="round"/>
<path d="M49.873 21.673C49.873 16.077 46.063 11.549 41.356 11.549M11.673 42.872C11.673 45.438 13.42 47.5149 15.578 47.5149L11.673 42.872ZM7.06104 42.437C7.06104 48.033 10.871 52.561 15.578 52.561L7.06104 42.437ZM45.262 21.238C45.262 18.671 43.515 16.5949 41.356 16.5949L45.262 21.238Z" stroke="black" stroke-width="2" stroke-miterlimit="10" stroke-linecap="round" stroke-linejoin="round"/>
</svg>
